<svg id="Layer_1" fill="white" data-name="Layer 1" xmlns="http://www.w3.org/2000/svg" viewBox="0 0 386.73 81.76"><defs><style>.cls-1{fill:#168def;}</style></defs><title>otakucodes</title><path d="M33.22,28.74c8.14-.55,9.68-.82,10.89-2.31,2.91.66,6.43,1.54,6.43,3,0,.94-1.15,1.32-2.14,1.32h-.22a71.45,71.45,0,0,0-7.2-.38c-1.43,0-5.11.11-7.75.33,0,12,.11,17.87.66,23.7.06.88.5,2.58.5,3.46,0,1.71-1.43,4.51-3.13,4.51-.94,0-1.43-1.54-1.6-2.15s-1.1-1.26-1.87-1.92c-.94-.77-6-3.3-8-4.51l.44-.83c2.25.88,6.32,2.25,8.08,2.92a4.59,4.59,0,0,0,1.59.28c.66,0,.71-.88.71-5.55-.06-4.95-.22-11.11-.28-16.55A67.05,67.05,0,0,1,4.4,55.19l-.77-1.1c8.91-4.95,18.59-14.24,23.7-22.82-5.88.6-11.22,1.15-13.2,1.92a5.89,5.89,0,0,1-2.64.71c-2,0-5.33-2.53-5.33-4.45a3.19,3.19,0,0,1,.77-2H7.2c.66,1.81,1.76,2.8,5.22,2.8S25,29.56,30.08,29.07c-.05-2.31-.17-5.72-.28-7.31-.11-2.36-.27-3.85-1.59-4.29A5.68,5.68,0,0,0,25.57,17l-.05-.17A3.24,3.24,0,0,1,28.16,15c2.75,0,6.27,1.54,6.27,3.57,0,1.65-1,.93-1.21,4.56Z"/><path d="M62.48,40.78c7.09-5.61,13.75-14.19,15.73-20.13a7.7,7.7,0,0,0,.6-2.25c0-1.37-2.53-1.7-3.24-1.7.27-1,1-1.48,2.31-1.48,2.36,0,6.27,1.87,6.27,3.35,0,.6-.61.94-1,1.21a4.94,4.94,0,0,0-1.54,2.09,16.88,16.88,0,0,1-1.48,2.75,9.18,9.18,0,0,0,1.76.11c1.81,0,9.07-.38,12.43-.88,1.21-.17,1.27-.17,1.76-.66.33-.33,1-.94,1.38-.94,1,0,4.18,3.08,4.18,3.74s-.5.77-1.26,1.1a2.51,2.51,0,0,0-1.71,1.32,89.1,89.1,0,0,1-7.31,13.53c2.64,1.76,6.1,4.07,6.1,6.49a1.59,1.59,0,0,1-1.65,1.65c-1,0-1.87-1.15-2.64-2a42.84,42.84,0,0,0-3.79-3.3,59.37,59.37,0,0,1-24,17.43L64.46,61A62,62,0,0,0,86.84,43a44.23,44.23,0,0,0-12.26-5.5l.61-1.26a52.88,52.88,0,0,1,13.36,4.34C93.5,33.25,95.69,26.65,95.69,26c0-.33-.22-.38-.66-.38-2.2,0-12.65,1.7-13.86,1.7a4.1,4.1,0,0,1-2.31-.71A51.13,51.13,0,0,1,63.41,41.94Z"/><path d="M118.36,41.11C128.86,32.75,133.7,21,133.7,18.29c0-2-2.58-2-3-2,.33-.88,1.15-1.48,2.69-1.48,2,0,5.94,2.09,5.94,3.52,0,.66-.71.77-1.26,1.32A3.11,3.11,0,0,0,137,21a37.53,37.53,0,0,1-3.08,5.83,12.39,12.39,0,0,0,1.48.06c2.09,0,9.79-.83,13.58-1.32a2.91,2.91,0,0,0,2-1c.38-.38.71-.82,1.15-.82,1,0,4.46,2.58,4.46,3.46,0,.66-.71.83-1.43,1.15a4,4,0,0,0-1.59,2c-4.67,13.25-13.14,25.13-30.08,31.9l-.77-1.16a52.45,52.45,0,0,0,27.72-32.61,3.08,3.08,0,0,0,.17-.83c0-.27-.11-.33-.39-.33-2,0-12.54,2.14-14,2.14a5,5,0,0,1-3.41-1c-3.24,4.89-7.48,10.06-13.42,13.75Z"/><path d="M199.21,39a7.13,7.13,0,0,1-6.71,6.71A6.93,6.93,0,0,1,185.73,39a6.79,6.79,0,0,1,6.76-6.76A7,7,0,0,1,199.21,39Zm-6.71-4.78A4.65,4.65,0,0,0,187.71,39a4.78,4.78,0,0,0,4.78,4.78A4.94,4.94,0,0,0,197.28,39a4.41,4.41,0,0,0-1.43-3.41A4.7,4.7,0,0,0,192.5,34.18Z"/><path d="M229.84,22.47c1,2.2,3.35,3.41,6.16,3.41,3.63,0,15.84-.44,23.15-1.1,2.58-.22,2.64-1.65,3.85-1.65,1,0,4.34,2.58,4.34,3.3s-.83,1.1-1.48,1.43-.88,1.21-1,2.8c-.55,6-1.21,15.67-2,19.74,1.81.71,3.3,1.6,3.3,3,0,.88-1.21.88-2,.88-1.48,0-2.47-.66-5.28-.72-.66,0-1.32-.05-2-.05-7.59,0-19.3,1.21-21.61,2.2a4.32,4.32,0,0,1-2.2.71c-2.25,0-5.06-3.25-5.06-5.11a3.89,3.89,0,0,1,1-2.53h.44c.88,2.58,2.47,3.57,5.55,3.57,1.21,0,19.41-1.16,23-1.37a3.89,3.89,0,0,0,1.71-.44c.71-6.32,1.43-16.28,1.65-22.71,0-.5-.17-.82-1.15-.82-.28,0-21.12,1-24.53,2.36a4,4,0,0,1-1.65.44c-1.76,0-5.06-3.46-5.06-5.11a3.5,3.5,0,0,1,.71-2.25Z"/><path d="M313.66,36.88c3.85,0,6-.44,6.76-.44,2.25,0,5.66.88,5.66,2.15,0,.93-.93,1.32-3,1.32-1,0-2,0-3.08-.06-2.37-.06-6.65-.11-9.73-.11-12.32,0-22.22.05-24.69.93a6.34,6.34,0,0,1-2.36.83c-1.81,0-5.39-3.19-5.39-5.39a3,3,0,0,1,1-2.58l.38-.05c.44,2.47,2,3.41,8.3,3.41Z"/><path d="M346.17,17.3a2.72,2.72,0,0,1,2.47-1.65c2.42,0,6.71,1.59,6.71,3.63,0,.5-.5.83-.88,1.43a3.63,3.63,0,0,0-.33,1.59c-.11,2.25-.17,6.71-.27,11.16,6.54.88,12.48,2.47,15.67,4.29s4.67,3,4.67,4.89a1.63,1.63,0,0,1-1.54,1.76c-1.32,0-2.86-1.43-4.23-2.64-2.36-2.14-7.92-5-14.57-6.82-.06,4-.06,8.14-.06,11.55,0,1.81.17,10.78.17,12.81,0,2.31-.93,3.13-1.87,3.13-2,0-2.64-5.11-3-6.54,1-1.43,1.21-2.37,1.43-8.36.05-2.48.11-8.08.11-13.47,0-4.67-.05-9.24-.17-11.55s-.38-5.17-4.23-5.17Zm19.3,2.42c4.29,1.76,7.37,4.67,7.37,7,0,1.38-.82,1.92-1.48,1.92s-1.16-.33-1.65-1.59a12.42,12.42,0,0,0-5.11-6.38Zm5.72-3.52c4.34,1.76,7.42,4.67,7.42,7,0,1.38-.82,1.87-1.48,1.87s-1.16-.28-1.65-1.59a12.62,12.62,0,0,0-5.17-6.32Z"/></svg>
